<svg id="Logo" xmlns="http://www.w3.org/2000/svg" viewBox="0 0 897 897"><path id="Logo-2" data-name="Logo" d="M512,63C264.3,63,63.5,263.8,63.5,511.5S264.3,960,512,960,960.5,759.2,960.5,511.5,759.7,63,512,63ZM940.5,511.5a433.43,433.43,0,0,1-4,59.26L575.67,518.48A63,63,0,0,0,576,512a64.29,64.29,0,0,0-.37-6.84l361-51.5A433.8,433.8,0,0,1,940.5,511.5ZM906.83,344.71a424.06,424.06,0,0,1,29.12,104L574.9,500.21a63.88,63.88,0,0,0-3.79-12.78l332-151.18C904.39,339.06,905.63,341.87,906.83,344.71ZM569,482.9a64.18,64.18,0,0,0-7.26-11.16l276-238.63a425.82,425.82,0,0,1,63.3,98.6ZM562,552a64.12,64.12,0,0,0,7.2-11.19L900.48,692.52A426.07,426.07,0,0,1,837,790.8ZM902.59,688,571.24,536.22A63.18,63.18,0,0,0,575,523.43l360.79,52.28a424.22,424.22,0,0,1-28.92,102.58Q904.78,683.17,902.59,688ZM834.47,229.33,558.43,468a64.17,64.17,0,0,0-10.09-8.66L746,152.47a430.26,430.26,0,0,1,69,56Q825.11,218.63,834.47,229.33ZM512,556a44,44,0,1,1,44-44A44.05,44.05,0,0,1,512,556Zm-15.64,18.07a64.16,64.16,0,0,0,13.1,1.87l-.41,364a427.19,427.19,0,0,1-115.69-16.6Zm18.1,1.87a63.66,63.66,0,0,0,13.12-1.86L629.79,923.63A427.75,427.75,0,0,1,514.05,940Zm12.72-126.11A63.91,63.91,0,0,0,514,448.05l.41-365a427.4,427.4,0,0,1,116,16.55ZM509,448.08a63.52,63.52,0,0,0-13.1,2L393.45,99.59A427.32,427.32,0,0,1,509.44,83Zm232.8-298.33L544.11,456.65A63.58,63.58,0,0,0,532,451.2L635.25,101a428.59,428.59,0,0,1,106.58,48.78ZM388.65,101,491.14,451.5a63.84,63.84,0,0,0-12,5.57l-197-307.3A428.56,428.56,0,0,1,388.65,101ZM209,208.5a429.85,429.85,0,0,1,68.95-56L475,459.82a64.36,64.36,0,0,0-9.93,8.71L189.56,229.29Q198.92,218.63,209,208.5ZM117.17,678.29a424,424,0,0,1-29-103L449.1,523.78a64,64,0,0,0,3.73,12.64l-331.66,151Q119.12,682.9,117.17,678.29ZM83.5,511.5a433.45,433.45,0,0,1,3.89-58.15l360.93,52.3a63.2,63.2,0,0,0,.05,13.18L87.48,570.31A433.34,433.34,0,0,1,83.5,511.5Zm378.29-39.16a64.37,64.37,0,0,0-7.08,11.13L123,331.55a426,426,0,0,1,63.25-98.48ZM120.94,336.09,452.66,488A64.07,64.07,0,0,0,449,500.7L88.09,448.4a424.41,424.41,0,0,1,29.08-103.69Q119,340.38,120.94,336.09ZM454.93,541A64.82,64.82,0,0,0,462.08,552L186.55,790.25A425.9,425.9,0,0,1,123.27,692ZM189.84,794,465.37,555.81a64.22,64.22,0,0,0,10,8.64L278.1,870.61A430.56,430.56,0,0,1,209,814.5Q199.06,804.54,189.84,794Zm92.46,79.31L479.54,567.15a63.51,63.51,0,0,0,12,5.5L388.57,922A428.11,428.11,0,0,1,282.3,873.33Zm352.29,48.89L532.38,572.67a64.33,64.33,0,0,0,12.07-5.51L741,873.76a427.71,427.71,0,0,1-106.42,48.46ZM815,814.5a429.87,429.87,0,0,1-69.78,56.55L548.66,564.45a64.57,64.57,0,0,0,10-8.71l275,238.82Q824.68,804.78,815,814.5Z" transform="translate(-63.5 -63)"/></svg>